<?xml version="1.0" standalone="no"?>
<!DOCTYPE svg PUBLIC "-//W3C//DTD SVG 20010904//EN"
        "http://www.w3.org/TR/2001/REC-SVG-20010904/DTD/svg10.dtd">
<svg version="1.0" xmlns="http://www.w3.org/2000/svg"
     width="782.000000pt" height="981.000000pt" viewBox="0 0 782.000000 981.000000"
     preserveAspectRatio="xMidYMid meet">

    <g transform="translate(0.000000,981.000000) scale(0.100000,-0.100000)"
       fill="#000000" stroke="none">
        <path d="M626 9783 c-303 -64 -544 -309 -602 -610 -21 -113 -21 -7930 1 -8074
72 -477 415 -880 880 -1033 200 -65 -76 -60 3195 -64 2157 -2 2987 0 3044 8
170 24 317 99 441 225 84 84 131 154 172 255 56 140 53 -135 53 4129 0 3082
-3 3943 -12 3975 -19 63 -100 140 -167 160 -68 20 -94 20 -160 0 -39 -11 -67
-29 -101 -64 -88 -87 -80 339 -80 -4065 l0 -3911 -26 -52 c-29 -58 -69 -96
-134 -126 l-45 -21 -2930 0 c-2403 0 -2942 2 -2995 13 -233 48 -439 204 -545
412 -63 125 -80 199 -80 350 0 113 4 147 24 210 80 258 263 442 526 531 l70
24 2480 5 2480 6 75 21 c294 86 505 310 565 599 22 108 23 6371 1 6487 -59
304 -301 548 -608 611 -69 14 -349 16 -2765 15 -2339 -1 -2697 -3 -2757 -16z
m5482 -529 c61 -30 105 -80 127 -143 13 -40 15 -394 15 -3185 0 -3137 0 -3141
-21 -3186 -25 -55 -71 -105 -124 -133 l-40 -22 -2465 -5 c-2463 -6 -2465 -6
-2555 -27 -171 -40 -314 -99 -443 -182 -34 -23 -65 -41 -67 -41 -11 0 -5 6735
5 6772 16 57 69 119 129 150 l53 28 2667 0 2667 0 52 -26z"/>
        <path d="M1237 1536 c-194 -52 -250 -302 -99 -438 82 -74 -152 -68 2797 -66
l2650 3 40 22 c197 106 189 379 -14 472 -33 15 -263 16 -2681 18 -2135 1
-2654 -1 -2693 -11z"/>
    </g>
</svg>
