<?xml version="1.0" standalone="no"?>
<!DOCTYPE svg PUBLIC "-//W3C//DTD SVG 20010904//EN"
 "http://www.w3.org/TR/2001/REC-SVG-20010904/DTD/svg10.dtd">
<svg version="1.0" xmlns="http://www.w3.org/2000/svg"
 width="900.000000pt" height="900.000000pt" viewBox="0 0 900.000000 900.000000"
 preserveAspectRatio="xMidYMid meet">
<metadata>
Created by potrace 1.14, written by Peter Selinger 2001-2017
</metadata>
<g transform="translate(0.000000,900.000000) scale(0.100000,-0.100000)"
fill="#000000" stroke="none">
<path d="M5125 7597 c-101 -126 -307 -373 -1069 -1281 -290 -346 -524 -632
-519 -636 4 -5 184 -106 398 -226 333 -187 399 -228 451 -279 140 -138 190
-340 128 -523 -32 -97 -69 -154 -142 -224 -98 -94 -219 -142 -357 -141 -71 0
-107 9 -310 72 -126 40 -326 104 -443 142 -118 39 -216 69 -218 66 -5 -5 140
-128 1116 -946 239 -200 442 -371 452 -378 18 -16 -145 -208 2068 2432 212
253 393 472 403 487 l17 27 -158 128 c-86 70 -207 168 -268 218 -132 107 -129
105 -864 697 -317 255 -580 467 -585 470 -6 4 -51 -44 -100 -105z"/>
<path d="M2940 7045 c-36 -7 -121 -29 -190 -49 -248 -70 -480 -136 -738 -210
-245 -71 -270 -76 -358 -76 l-94 0 0 -781 c0 -739 1 -780 18 -775 21 7 333 89
462 122 178 45 196 39 371 -134 149 -146 196 -183 291 -229 54 -26 685 -236
1123 -372 171 -53 243 -56 334 -10 191 96 229 353 74 501 -22 21 -248 154
-533 313 -272 153 -515 290 -541 306 -120 75 -119 237 1 307 42 26 54 27 198
30 l153 4 152 181 c477 568 579 690 583 701 3 9 -7 15 -28 19 -18 3 -188 33
-378 67 -190 34 -403 70 -475 81 -148 22 -327 23 -425 4z"/>
<path d="M845 6868 c4 -19 38 -377 60 -623 3 -33 21 -226 40 -430 19 -203 46
-496 60 -650 14 -154 28 -295 31 -312 l5 -33 144 0 145 0 0 1035 0 1035 -245
0 -245 0 5 -22z"/>
<path d="M2978 3195 c-145 -55 -225 -179 -216 -334 8 -134 30 -162 298 -392
160 -137 394 -346 538 -481 248 -233 492 -392 718 -468 175 -60 182 -60 938
-60 380 0 742 -5 804 -10 197 -18 328 -87 431 -228 l46 -62 55 5 c168 16 978
90 1304 121 209 19 382 37 384 39 8 8 -262 702 -343 885 -114 257 -254 491
-369 617 -151 166 -337 265 -580 310 -80 15 -197 18 -977 20 l-886 4 -58 -22
c-70 -26 -137 -89 -168 -157 -32 -71 -30 -180 4 -253 33 -71 87 -125 158 -158
l56 -26 435 -5 c239 -3 441 -9 448 -13 6 -5 19 -22 28 -38 19 -38 11 -79 -22
-110 l-26 -24 -666 0 c-713 0 -727 1 -879 51 -124 42 -181 75 -453 264 -406
281 -722 496 -760 515 -46 25 -190 31 -242 10z"/>
<path d="M8445 1114 c-11 -2 -216 -22 -455 -44 -239 -22 -631 -58 -870 -80
-239 -22 -495 -46 -567 -52 l-133 -12 0 -148 0 -148 1035 0 1035 0 0 245 c0
190 -3 245 -12 244 -7 -1 -22 -3 -33 -5z"/>
</g>
</svg>
