<?xml version="1.0" encoding="UTF-8" ?>
<svg xmlns="http://www.w3.org/2000/svg" version="1.1" height="19px" width="14px">
    <path d="M11.375 0C11.375 0 1.625 0 1.625 0 0.7312500000000002 0 0 0.8099999999999998 0 1.8 0 1.8 0 16.2 0 16.2 0 17.19 0.7312500000000002 18 1.625 18 1.625 18 11.375 18 11.375 18 12.26875 18 13 17.19 13 16.2 13 16.2 13 1.8 13 1.8 13 0.8099999999999998 12.26875 0 11.375 0 11.375 0 11.375 0 11.375"
          stroke-width="1" stroke="black" stroke-dasharray="none" fill="#fbf7f7"></path>
    <path d="M1.625 1.8C1.625 1.8 5.6875 1.8 5.6875 1.8 5.6875 1.8 5.6875 9 5.6875 9 5.6875 9 3.65625 7.650000000000001 3.65625 7.650000000000001 3.65625 7.650000000000001 1.625 9 1.625 9 1.625 9 1.625 1.8 1.625 1.8 1.625 1.8 1.625 1.8 1.625 1.8"
          stroke-width="0" stroke="nonde" stroke-dasharray="none" fill="#3e3e3e"></path>
</svg>